<?xml version="1.0" encoding="UTF-8"?>
<svg xmlns="http://www.w3.org/2000/svg" xmlns:xlink="http://www.w3.org/1999/xlink" viewBox="0 0 2000 2000">
  <defs>
    <style>
      .cls-1 {
        fill: #fff;
      }

      .cls-2 {
        fill: none;
      }

      .cls-3 {
        fill: url(#linear-gradient);
      }

      .cls-4 {
        clip-path: url(#clippath);
      }
    </style>
    <clipPath id="clippath">
      <polygon class="cls-2" points="1000 9.7 140.43 505.97 140.43 1498.52 1000 1994.79 1859.57 1498.52 1859.57 505.97 1000 9.7"/>
    </clipPath>
    <linearGradient id="linear-gradient" x1="0" y1="1000" x2="2000" y2="1000" gradientUnits="userSpaceOnUse">
      <stop offset="0" stop-color="#4ba9df"/>
      <stop offset="1" stop-color="#2d3286"/>
    </linearGradient>
  </defs>
  <g id="Layer_1" data-name="Layer 1">
    <g id="Layer_3" data-name="Layer 3">
      <g class="cls-4">
        <rect class="cls-3" width="2000" height="2000"/>
        <g>
          <path class="cls-1" d="M1490.51,886.09v-292l-276.3-159.51-142.96,82.54-71.26,41.14-214.21-123.67-276.3,159.51v292c-7.33,3.67-12.42,11.17-12.42,19.92,0,12.34,10.01,22.35,22.35,22.35s22.35-10.01,22.35-22.35c0-8.76-5.08-16.26-12.42-19.92v-280.53s256.43-148.04,256.43-148.04l194.35,112.2-42.21,24.37h0v48.75l-152.13-87.83-172,99.3v376.68c-7.33,3.67-12.42,11.17-12.42,19.92,0,12.34,10.01,22.35,22.35,22.35s22.35-10.01,22.35-22.35c0-8.76-5.08-16.26-12.42-19.92v-365.21l152.14-87.83,152.13,87.83v778.36h-271.93c-3.67-7.33-11.17-12.42-19.92-12.42-12.34,0-22.35,10.01-22.35,22.35s10.01,22.35,22.35,22.35c8.76,0,16.26-5.08,19.92-12.42h271.93s0,73.62,0,73.62h-175.12c-3.67-7.33-11.17-12.42-19.92-12.42-12.34,0-22.35,10.01-22.35,22.35s10.01,22.35,22.35,22.35c8.76,0,16.26-5.08,19.92-12.42h194.99v-103.42h0v-848.51s128.21-74.02,128.21-74.02l128.21-74.02,256.43,148.04v280.53c-7.33,3.67-12.42,11.17-12.42,19.92,0,12.34,10.01,22.35,22.35,22.35s22.35-10.01,22.35-22.35c0-8.76-5.08-16.26-12.42-19.92Z"/>
          <path class="cls-1" d="M1249.64,1201.66c0,12.34,10.01,22.35,22.35,22.35s22.35-10.01,22.35-22.35c0-8.76-5.08-16.26-12.42-19.92v-467.21l-67.71-39.09-67.7,39.09v570.05c-7.33,3.67-12.42,11.17-12.42,19.92,0,12.34,10.01,22.35,22.35,22.35s22.35-10.01,22.35-22.35c0-8.76-5.08-16.26-12.42-19.92v-558.58s47.84-27.62,47.84-27.62l47.84,27.62v455.74c-7.33,3.67-12.42,11.17-12.42,19.92Z"/>
          <path class="cls-1" d="M1397.75,1431.73c-8.76,0-16.26,5.08-19.92,12.42h-315.75s0-660.82,0-660.82h0v-117.55l152.13-87.83,152.14,87.83v364.73c-7.82,3.48-13.29,11.29-13.29,20.4,0,12.34,10.01,22.35,22.35,22.35s22.35-10.01,22.35-22.35c0-8.4-4.69-15.63-11.54-19.45v-377.15l-172-99.3-172,99.3v903.18h194.98c3.67,7.33,11.17,12.42,19.92,12.42,12.34,0,22.35-10.01,22.35-22.35s-10.01-22.35-22.35-22.35c-8.76,0-16.26,5.08-19.92,12.42h-175.12v-73.62h315.75c3.67,7.33,11.17,12.42,19.92,12.42,12.34,0,22.35-10.01,22.35-22.35s-10.01-22.35-22.35-22.35Z"/>
          <path class="cls-1" d="M821.21,1304.5c0,12.34,10.01,22.35,22.35,22.35s22.35-10.01,22.35-22.35c0-8.76-5.08-16.26-12.42-19.92v-570.05s-67.7-39.09-67.7-39.09l-67.71,39.09v467.21c-7.33,3.67-12.42,11.17-12.42,19.92,0,12.34,10.01,22.35,22.35,22.35s22.35-10.01,22.35-22.35c0-8.76-5.08-16.26-12.42-19.92v-455.74l47.84-27.62,47.84,27.62v558.58c-7.33,3.67-12.42,11.17-12.42,19.92Z"/>
        </g>
      </g>
    </g>
  </g>
  <g id="Layer_2" data-name="Layer 2">
    <path class="cls-1" d="M1000,32.8l839.57,484.72v969.45l-839.57,484.72-839.57-484.72v-969.45L1000,32.8M1000,9.7L140.43,505.97v992.54l859.57,496.27,859.57-496.27V505.97L1000,9.7h0Z"/>
  </g>
</svg>