<?xml version="1.0" encoding="UTF-8"?>
<svg id="Layer_1" data-name="Layer 1" xmlns="http://www.w3.org/2000/svg" viewBox="0 0 1679.87 1896.11">
  <defs>
    <style>
      .cls-1 {
        fill: #fff;
      }
    </style>
  </defs>
  <path class="cls-1" d="M1659.13,754.06v-487.66L1197.69,0l-238.75,137.84-119,68.7L482.18,0,20.74,266.4v487.66c-12.25,6.12-20.74,18.65-20.74,33.27,0,20.61,16.71,37.33,37.33,37.33s37.33-16.71,37.33-37.33c0-14.62-8.49-27.15-20.74-33.27v-468.5S482.18,38.32,482.18,38.32l324.57,187.38-70.5,40.7h0v81.42l-254.08-146.68-287.26,165.84v629.09c-12.25,6.12-20.74,18.65-20.74,33.27,0,20.61,16.71,37.33,37.33,37.33s37.33-16.71,37.33-37.33c0-14.62-8.49-27.15-20.74-33.27V386.13l254.08-146.69,254.08,146.68v1299.94h-454.15c-6.12-12.25-18.65-20.74-33.27-20.74-20.61,0-37.33,16.71-37.33,37.33s16.71,37.33,37.33,37.33c14.62,0,27.15-8.49,33.27-20.74h454.15s0,122.95,0,122.95h-292.47c-6.12-12.25-18.65-20.74-33.27-20.74-20.61,0-37.33,16.71-37.33,37.33s16.71,37.33,37.33,37.33c14.62,0,27.15-8.49,33.27-20.74h325.65v-172.72h0V285.56s214.13-123.63,214.13-123.63l214.13-123.62,428.27,247.24v468.5c-12.25,6.12-20.74,18.65-20.74,33.27,0,20.61,16.71,37.33,37.33,37.33s37.33-16.71,37.33-37.33c0-14.62-8.49-27.15-20.74-33.27Z"/>
  <path class="cls-1" d="M1256.85,1281.1c0,20.61,16.71,37.33,37.33,37.33s37.33-16.71,37.33-37.33c0-14.62-8.49-27.15-20.74-33.27V467.55l-113.08-65.29-113.07,65.28v952.04c-12.25,6.12-20.74,18.65-20.74,33.27,0,20.61,16.71,37.33,37.33,37.33s37.33-16.72,37.33-37.33c0-14.62-8.49-27.15-20.74-33.27V486.69s79.89-46.13,79.89-46.13l79.9,46.13v761.13c-12.25,6.12-20.74,18.65-20.74,33.27Z"/>
  <path class="cls-1" d="M1504.22,1665.33c-14.62,0-27.15,8.49-33.27,20.74h-527.33s0-1103.62,0-1103.62h0v-196.32l254.08-146.68,254.08,146.69v609.14c-13.06,5.81-22.2,18.85-22.2,34.07,0,20.61,16.71,37.33,37.33,37.33s37.33-16.71,37.33-37.33c0-14.03-7.83-26.1-19.27-32.48V366.97l-287.26-165.84-287.25,165.83v1508.4h325.64c6.12,12.25,18.65,20.74,33.27,20.74,20.61,0,37.33-16.71,37.33-37.33s-16.71-37.33-37.33-37.33c-14.62,0-27.15,8.49-33.27,20.74h-292.46v-122.95h527.33c6.12,12.25,18.65,20.74,33.27,20.74,20.61,0,37.33-16.71,37.33-37.33s-16.71-37.33-37.33-37.33Z"/>
  <path class="cls-1" d="M541.33,1452.85c0,20.61,16.71,37.33,37.33,37.33s37.33-16.72,37.33-37.33c0-14.62-8.49-27.15-20.74-33.27V467.54s-113.07-65.28-113.07-65.28l-113.08,65.29v780.28c-12.25,6.12-20.74,18.65-20.74,33.27,0,20.61,16.71,37.33,37.33,37.33s37.33-16.71,37.33-37.33c0-14.62-8.49-27.15-20.74-33.27V486.7l79.9-46.13,79.89,46.13v932.88c-12.25,6.12-20.74,18.65-20.74,33.27Z"/>
</svg>